<?xml version="1.0" standalone="no"?>
<!DOCTYPE svg PUBLIC "-//W3C//DTD SVG 20010904//EN"
 "http://www.w3.org/TR/2001/REC-SVG-20010904/DTD/svg10.dtd">
<svg version="1.0" xmlns="http://www.w3.org/2000/svg"
 width="465.000000pt" height="255.000000pt" viewBox="0 0 465.000000 255.000000"
 preserveAspectRatio="xMidYMid meet">
<g transform="translate(0.000000,255.000000) scale(0.100000,-0.100000)"
fill="#000000" stroke="none">
<path d="M1882 2128 c-20 -20 -14 -48 18 -85 17 -18 30 -38 30 -43 0 -17 -20
-21 -26 -6 -7 17 -34 22 -34 7 0 -43 60 -59 80 -22 15 29 13 37 -20 74 -33 38
-38 57 -15 57 8 0 15 -4 15 -10 0 -5 7 -10 15 -10 18 0 18 5 5 31 -12 21 -50
25 -68 7z"/>
<path d="M1970 2050 c0 -73 3 -90 15 -90 12 0 15 17 15 90 0 73 -3 90 -15 90
-12 0 -15 -17 -15 -90z"/>
<path d="M2020 2050 c0 -72 3 -90 14 -90 10 0 16 14 18 43 l3 42 13 -42 c7
-25 19 -43 27 -43 12 0 15 18 15 90 0 53 -4 90 -10 90 -5 0 -10 -16 -10 -36 0
-41 -15 -37 -25 6 -5 21 -13 30 -26 30 -17 0 -19 -8 -19 -90z"/>
<path d="M2142 2128 c-12 -12 -17 -124 -6 -152 9 -24 61 -21 74 5 12 22 7 49
-9 49 -5 0 -11 -10 -13 -22 -6 -47 -23 -21 -26 40 -2 51 0 62 13 62 8 0 15 -7
15 -15 0 -8 7 -15 15 -15 18 0 19 14 5 41 -12 21 -50 25 -68 7z"/>
<path d="M2237 2133 c-4 -3 -7 -44 -7 -90 l0 -83 40 0 c42 0 56 16 18 22 -31
4 -38 47 -9 55 27 7 27 19 1 26 -31 8 -27 47 5 47 16 0 25 6 25 15 0 10 -10
15 -33 15 -19 0 -37 -3 -40 -7z"/>
<path d="M2406 2125 c-16 -12 -17 -18 -8 -27 7 -7 12 -39 12 -75 0 -49 3 -63
15 -63 12 0 15 17 15 90 0 50 -3 90 -7 90 -5 0 -17 -7 -27 -15z"/>
<path d="M2482 2128 c-7 -7 -12 -31 -12 -55 0 -40 2 -44 31 -50 21 -4 28 -10
25 -20 -4 -8 -6 -17 -6 -20 0 -4 -9 2 -20 12 -24 21 -35 15 -25 -14 4 -15 15
-21 35 -21 37 0 50 23 50 90 0 28 -5 60 -10 71 -12 21 -50 25 -68 7z m43 -48
c0 -13 -6 -25 -12 -27 -9 -3 -13 6 -13 27 0 21 4 30 13 28 6 -3 12 -15 12 -28z"/>
<path d="M2582 2128 c-16 -16 -16 -80 0 -96 7 -7 20 -12 30 -12 10 0 18 -6 18
-13 0 -23 -13 -28 -31 -11 -13 12 -19 12 -25 3 -10 -17 32 -50 54 -42 27 10
32 24 32 94 0 69 -10 89 -45 89 -12 0 -26 -5 -33 -12z m48 -48 c0 -20 -5 -30
-15 -30 -10 0 -15 10 -15 30 0 20 5 30 15 30 10 0 15 -10 15 -30z"/>
<path d="M2679 2116 c-8 -16 -8 -30 -1 -42 7 -12 6 -25 -1 -41 -7 -16 -7 -30
1 -49 10 -21 18 -25 45 -22 l32 3 2 80 c3 84 -3 95 -45 95 -14 0 -26 -9 -33
-24z m51 -27 c0 -24 -23 -21 -28 4 -2 10 3 17 12 17 10 0 16 -9 16 -21z m0
-73 c0 -14 -5 -28 -10 -31 -13 -8 -24 20 -16 40 9 24 26 17 26 -9z"/>
<path d="M1015 1821 c-77 -20 -121 -59 -157 -136 -23 -49 -23 -54 -23 -435 0
-381 0 -386 23 -435 49 -107 106 -139 242 -139 136 0 194 33 242 139 19 43 22
68 23 170 l0 120 -82 3 -83 3 0 -96 c0 -119 -14 -158 -63 -174 -54 -18 -102 5
-116 56 -16 55 -14 667 2 713 15 43 55 65 103 55 51 -9 68 -43 74 -144 l5 -86
80 0 80 0 -1 100 c-1 144 -38 221 -128 267 -43 22 -169 33 -221 19z"/>
<path d="M3457 1814 c-65 -20 -121 -78 -141 -145 -13 -43 -16 -116 -16 -418 0
-209 4 -381 10 -401 18 -66 64 -125 116 -151 68 -34 209 -35 270 -2 99 53 134
133 134 305 l0 109 -82 -3 -83 -3 -5 -112 c-6 -133 -19 -155 -90 -157 -34 -1
-46 4 -66 27 l-24 28 0 362 c1 281 4 366 14 379 18 24 65 40 97 33 50 -11 64
-38 69 -138 l5 -92 80 0 80 0 -1 110 c0 123 -17 171 -77 227 -60 54 -188 73
-290 42z"/>
<path d="M1610 1817 c0 -2 -15 -98 -34 -213 -19 -115 -49 -297 -66 -404 -17
-107 -42 -262 -55 -345 -14 -82 -25 -156 -25 -162 0 -9 23 -13 79 -13 91 0 84
-8 101 114 5 43 13 82 16 87 6 11 214 12 215 2 0 -5 8 -51 17 -103 l17 -95 88
-3 c78 -2 87 -1 87 15 0 10 -11 88 -25 173 -44 270 -84 519 -115 715 -17 105
-33 200 -35 213 -5 21 -9 22 -135 22 -72 0 -130 -1 -130 -3z m183 -611 c13
-86 21 -159 19 -161 -3 -3 -41 -5 -84 -5 -54 0 -78 4 -78 12 0 23 71 493 77
513 7 21 21 -58 66 -359z"/>
<path d="M2084 1807 c-3 -8 -4 -45 -2 -83 l3 -69 92 -3 93 -3 2 -482 3 -482
85 0 85 0 3 483 2 482 83 0 c45 0 88 4 95 9 9 5 12 29 10 82 l-3 74 -273 3
c-223 2 -273 0 -278 -11z"/>
<path d="M2715 1808 c-3 -7 -4 -263 -3 -568 l3 -555 243 -3 242 -2 0 85 0 85
-155 0 -155 0 2 163 3 162 123 3 122 3 0 79 0 80 -125 0 -125 0 0 155 0 154
153 3 152 3 3 83 3 82 -241 0 c-183 0 -242 -3 -245 -12z"/>
<path d="M570 560 l0 -40 1755 0 1755 0 0 40 0 40 -1755 0 -1755 0 0 -40z"/>
<path d="M570 471 c-5 -11 -10 -38 -10 -61 0 -23 5 -50 10 -61 19 -34 70 -18
70 23 0 22 -18 24 -26 3 -4 -8 -10 -15 -15 -15 -12 0 -11 97 1 105 6 3 10 -1
10 -9 0 -9 7 -16 15 -16 16 0 19 9 9 34 -9 22 -51 20 -64 -3z"/>
<path d="M652 413 l3 -78 33 -3 c35 -4 44 12 12 21 -24 6 -28 47 -5 47 8 0 15
4 15 9 0 5 -7 11 -15 15 -22 8 -18 37 5 43 33 9 23 23 -15 23 l-36 0 3 -77z"/>
<path d="M740 410 c0 -83 16 -111 22 -37 l3 42 13 -43 c20 -66 37 -48 40 41 2
64 0 77 -13 77 -10 0 -15 -10 -16 -27 l-1 -28 -10 28 c-5 15 -16 27 -24 27
-11 0 -14 -18 -14 -80z"/>
<path d="M830 482 c0 -4 4 -12 9 -17 6 -6 11 -37 13 -69 4 -87 26 -86 30 1 2
52 6 68 18 68 11 0 15 -13 16 -55 2 -76 3 -80 14 -80 6 0 10 14 10 30 0 17 4
30 9 30 5 0 11 -13 15 -30 4 -24 11 -30 31 -30 14 0 28 7 31 15 4 8 12 15 20
15 8 0 14 -7 14 -15 0 -8 7 -15 16 -15 13 0 15 7 9 38 -5 20 -11 55 -14 77 -5
31 -11 41 -27 43 -19 3 -22 -3 -28 -57 -4 -33 -11 -63 -16 -66 -10 -6 -11 2
-14 80 l-1 40 -77 3 c-43 2 -78 -1 -78 -6z m130 -42 c0 -11 -4 -20 -10 -20 -5
0 -10 9 -10 20 0 11 5 20 10 20 6 0 10 -9 10 -20z m90 -36 c0 -14 -4 -23 -9
-20 -5 3 -7 15 -4 26 7 28 13 25 13 -6z"/>
<path d="M1100 410 l0 -80 29 0 c17 0 33 5 36 10 3 6 -3 10 -14 10 -19 0 -21
6 -21 70 0 56 -3 70 -15 70 -12 0 -15 -16 -15 -80z"/>
<path d="M1227 468 c-14 -60 -19 -138 -8 -138 6 0 11 7 11 15 0 8 6 15 14 15
8 0 16 -7 20 -15 7 -20 26 -19 26 2 0 9 -5 45 -11 80 -9 50 -15 63 -29 63 -10
0 -20 -10 -23 -22z m33 -62 c0 -8 -4 -18 -10 -21 -5 -3 -10 3 -10 14 0 12 5
21 10 21 6 0 10 -6 10 -14z"/>
<path d="M1304 465 c-4 -18 1 -33 20 -56 26 -31 33 -49 18 -49 -4 0 -13 5 -20
12 -16 16 -29 1 -16 -20 16 -25 51 -27 64 -3 12 23 3 48 -24 71 -9 7 -16 21
-16 31 0 17 3 17 20 7 24 -15 37 -4 20 17 -20 25 -59 19 -66 -10z"/>
<path d="M1390 410 c0 -64 3 -80 15 -80 12 0 15 16 15 80 0 64 -3 80 -15 80
-12 0 -15 -16 -15 -80z"/>
<path d="M1441 427 c-17 -99 -14 -117 15 -79 12 15 15 15 27 2 6 -8 24 -16 39
-16 24 -2 27 2 30 35 l4 36 10 -35 c6 -19 17 -35 25 -35 19 0 21 146 2 153 -8
2 -13 -7 -14 -25 l-1 -28 -11 28 c-7 16 -17 26 -27 25 -11 -2 -16 -21 -20 -73
l-5 -70 -8 45 c-17 97 -18 100 -37 100 -14 0 -20 -13 -29 -63z m39 -27 c0 -11
-4 -20 -10 -20 -5 0 -10 9 -10 20 0 11 5 20 10 20 6 0 10 -9 10 -20z"/>
<path d="M1650 481 c0 -5 7 -11 15 -15 11 -4 15 -22 15 -71 0 -37 4 -65 10
 -65 6 0 10 28 10 65 0 49 4 67 15 71 28 11 15 24 -25 24 -22 0 -40 -4 -40 -9z"/>
<path d="M1740 410 l0 -80 35 0 c39 0 48 17 13 22 -31 4 -39 48 -9 48 27 0 27
16 0 23 -28 7 -21 41 9 45 35 5 26 22 -13 22 l-35 0 0 -80z"/>
<path d="M1827 483 c-12 -11 -8 -128 5 -141 7 -7 20 -12 30 -12 19 0 42 35 33
50 -9 15 -25 12 -25 -5 0 -8 -4 -15 -10 -15 -6 0 -10 26 -10 58 1 49 2 55 14
40 12 -17 36 -25 36 -12 0 32 -52 58 -73 37z"/>
<path d="M1910 409 c0 -60 3 -80 13 -77 6 3 13 19 15 36 2 18 7 32 12 32 5 0
10 -14 12 -32 2 -17 9 -33 16 -36 9 -3 12 17 12 77 0 65 -3 81 -15 81 -10 0
-15 -11 -15 -35 0 -19 -4 -35 -10 -35 -5 0 -10 16 -10 35 0 24 -5 35 -15 35
-12 0 -15 -16 -15 -81z"/>
<path d="M2010 410 c0 -47 4 -80 10 -80 6 0 10 16 10 36 0 41 15 38 23 -6 4
-18 13 -30 22 -30 12 0 15 15 15 80 0 64 -3 80 -15 80 -9 0 -15 -9 -16 -22 l0
-23 -11 23 c-6 12 -17 22 -25 22 -10 0 -13 -20 -13 -80z"/>
<path d="M2104 476 c-10 -26 1 -139 14 -144 9 -3 12 17 12 77 0 49 -4 81 -10
81 -6 0 -13 -6 -16 -14z"/>
<path d="M2157 484 c-11 -11 -8 -142 4 -149 5 -4 21 -4 35 -1 17 5 24 13 24
31 0 30 -16 33 -25 5 -11 -34 -25 -11 -25 40 0 49 15 75 26 46 9 -24 26 -19
22 7 -2 15 -11 23 -28 25 -14 2 -29 0 -33 -4z"/>
<path d="M2241 413 c-11 -77 -8 -102 10 -70 12 21 39 22 39 1 0 -9 5 -14 11
-12 13 4 13 2 5 68 -10 78 -15 90 -35 90 -15 0 -21 -14 -30 -77z m39 -10 c0
-19 -3 -24 -10 -17 -6 6 -8 18 -4 27 9 24 14 21 14 -10z"/>
<path d="M2330 410 l0 -80 30 0 c34 0 40 15 10 23 -17 4 -20 14 -20 71 0 37
-4 66 -10 66 -6 0 -10 -33 -10 -80z"/>
<path d="M2456 475 c-13 -35 -19 -145 -7 -145 6 0 11 7 11 15 0 20 20 19 36
-2 22 -31 26 -7 13 71 -10 60 -17 76 -30 76 -9 0 -19 -7 -23 -15z m21 -87 c-3
-7 -5 -2 -5 12 0 14 2 19 5 13 2 -7 2 -19 0 -25z"/>
<path d="M2532 413 c3 -80 20 -107 27 -43 l3 35 12 -34 c23 -64 36 -49 36 38
0 47 -4 81 -10 81 -5 0 -10 -12 -11 -27 l-1 -28 -11 28 c-6 16 -18 27 -29 27
-17 0 -19 -8 -16 -77z"/>
<path d="M2630 410 l0 -80 30 0 c37 0 50 23 50 87 0 56 -12 73 -52 73 l-28 0
0 -80z m50 0 c0 -49 -13 -73 -24 -44 -8 21 -8 89 0 97 15 14 24 -7 24 -53z"/>
<path d="M2760 410 l0 -80 29 0 c36 0 50 17 19 22 -31 4 -39 48 -9 48 27 0 27
16 0 23 -28 7 -21 41 9 45 35 5 26 22 -13 22 l-35 0 0 -80z"/>
<path d="M2847 483 c-12 -11 -8 -128 5 -141 18 -18 46 -14 58 7 14 27 13 41
-5 41 -8 0 -15 -7 -15 -15 0 -8 -4 -15 -10 -15 -6 0 -10 26 -10 58 1 49 2 55
14 40 12 -17 36 -25 36 -12 0 32 -52 58 -73 37z"/>
<path d="M2934 477 c-3 -8 -4 -43 -2 -78 3 -64 3 -64 33 -64 25 0 31 5 35 30
3 17 3 50 0 75 -4 40 -8 45 -33 48 -17 2 -29 -2 -33 -11z m44 -73 c-2 -27 -7
-49 -13 -49 -11 0 -19 79 -10 103 11 30 26 -5 23 -54z"/>
<path d="M3020 410 c0 -47 4 -80 10 -80 6 0 10 16 10 35 0 19 4 35 9 35 5 0
12 -16 15 -35 4 -21 13 -35 21 -35 12 0 15 17 15 80 0 76 -15 110 -22 53 l-4
-28 -12 28 c-6 15 -18 27 -27 27 -12 0 -15 -15 -15 -80z"/>
<path d="M3122 478 c-15 -15 -16 -102 -2 -129 12 -22 43 -25 59 -5 7 9 11 40
9 78 -3 59 -5 63 -28 66 -14 2 -31 -3 -38 -10z m48 -65 c0 -39 -9 -65 -21 -57
-10 6 -12 97 -2 107 11 11 23 -15 23 -50z"/>
<path d="M3210 410 c0 -47 4 -80 10 -80 6 0 11 12 11 28 1 20 2 22 6 7 8 -34
23 -42 39 -21 12 17 14 18 14 3 0 -9 5 -17 10 -17 6 0 10 34 10 81 0 71 -2 80
-17 77 -12 -2 -20 -15 -23 -38 -5 -37 -13 -33 -24 13 -3 15 -13 27 -21 27 -12
0 -15 -16 -15 -80z"/>
<path d="M3330 410 c0 -44 4 -80 9 -80 14 0 21 27 21 80 0 53 -7 80 -21 80 -5
0 -9 -36 -9 -80z"/>
<path d="M3377 483 c-12 -11 -8 -128 5 -141 7 -7 20 -12 30 -12 19 0 42 35 33
50 -9 15 -25 12 -25 -5 0 -8 -4 -15 -9 -15 -5 0 -11 21 -13 46 -4 50 6 80 18
51 6 -15 34 -25 34 -11 0 32 -52 58 -73 37z"/>
<path d="M3502 478 c-15 -15 -16 -102 -2 -129 12 -21 40 -25 58 -7 17 17 15
48 -3 48 -8 0 -15 -7 -15 -15 0 -8 -4 -15 -10 -15 -5 0 -10 22 -10 49 0 28 5
53 10 56 6 3 10 -1 10 -9 0 -9 7 -16 15 -16 16 0 19 9 9 34 -7 19 -45 21 -62
4z"/>
<path d="M3585 467 c-4 -13 -5 -45 -3 -72 3 -55 25 -78 56 -59 21 14 30 118
11 140 -19 23 -58 18 -64 -9z m45 -52 c0 -30 -4 -55 -10 -55 -5 0 -10 25 -10
55 0 30 5 55 10 55 6 0 10 -25 10 -55z"/>
<path d="M3672 413 l3 -78 100 -2 c105 -2 150 5 105 16 -33 9 -41 51 -11 51
27 0 27 16 1 23 -11 3 -20 13 -20 22 0 9 9 19 20 22 30 8 24 23 -10 23 l-30 0
0 -70 c0 -68 -1 -70 -25 -70 -24 0 -25 2 -25 70 0 56 -3 70 -15 70 -12 0 -15
-15 -15 -71 0 -67 -1 -70 -22 -67 -21 3 -23 9 -26 71 -2 51 -6 67 -18 67 -12
0 -14 -14 -12 -77z"/>
<path d="M3917 483 c-4 -3 -7 -37 -7 -74 0 -66 1 -69 27 -75 19 -5 30 -2 40
12 18 25 13 68 -9 72 -15 3 -17 -2 -12 -27 5 -24 3 -31 -9 -31 -11 0 -15 12
 -15 50 0 53 11 71 26 44 14 -25 35 -8 22 17 -10 18 -50 26 -63 12z"/>
<path d="M4000 410 l0 -80 35 0 c19 0 35 5 35 10 0 6 -9 10 -20 10 -11 0 -20
3 -21 8 0 4 -2 15 -4 25 -2 11 3 17 16 17 10 0 19 5 19 10 0 6 -6 10 -14 10
-8 0 -16 6 -18 13 -8 20 2 37 23 37 10 0 19 5 19 10 0 6 -16 10 -35 10 l-35 0
0 -80z"/>
</g>
</svg>
